<?xml version="1.0" encoding="utf-8"?>
<!-- Generator: Adobe Illustrator 25.3.1, SVG Export Plug-In . SVG Version: 6.00 Build 0)  -->
<svg version="1.1" id="Camada_1" xmlns="http://www.w3.org/2000/svg" xmlns:xlink="http://www.w3.org/1999/xlink" x="0px" y="0px"
	 viewBox="0 0 360 600" style="enable-background:new 0 0 360 600;" xml:space="preserve">
<style type="text/css">
	.st0{fill:#FFFFFF;}
</style>
<path class="st0" d="M325.63,283.51c-3.32-14.61-6.83-120.14-7.64-125.15c-8.63-53.78-109.97-132.79-109.97-132.79
	c-14.61-12.61-37.52-11.62-54.45,0c-9.75,6.69-106.24,94.5-107.13,132.79c-0.35,15.27-2.66,102.58-5.31,125.48
	c3.98,12.61,13.61,55.11,6.64,71.71c-4.24,10.1-15.93,34.52,7.3,75.03c7.15,12.46,95.94,146.4,100.25,152.21
	c0,0-18.52-120.64-19.92-171.79c-0.6-21.91-2.32-100.59-3.65-109.22c-44.15-6.31-57.43-37.18-55.11-58.09
	c12.95,3.32,70.71,22.57,70.71,22.57c22.91,23.24,22.91,61.75,12.28,120.17c5.31,9.96,21.25,42.16,23.7,45.15
	c2.78-3.32,17.8-36.18,20.79-43.49c-9.3-61.08-7.3-98.93,12.95-121.83c7.97-6.64,65.4-19.88,70.38-21.91
	c4.32,27.55-17.59,54.96-54.77,57.1c-0.7,20.22-2.94,88.14-3.65,108.55c-1.85,53.14-16.31,165.65-19.25,172.79
	c4.32-5.15,88.08-133.77,96.27-146.56c25.39-39.65,17.93-55.11,11.95-80.67C312.39,331.56,318.66,296.12,325.63,283.51z
	 M221.32,552.59c6.31-36.85,17.59-169.53,18.64-201.63c2.66,50.92-3.04,131.13-8.8,180.6c0,0,29.43-34.52,32.75-37.84
	C262.38,497.48,228.76,543.47,221.32,552.59z M194.18,222.67l-9.85,9.74l-0.11-208.59c0,0,34.52,28.77,40.28,34.52
	C192.63,114.56,193.51,151.74,194.18,222.67z M296.24,259.67c-0.44-8.58-0.33-24.23-0.83-29.46c-8.47,4.9-37.68,13.53-52.78,15.52
	c35.49-14.53,53.78-28.38,58.59-44.98C302.55,209.87,301.31,251.03,296.24,259.67z"/>
<path d="M326.5,283.88c-3.32-14.61-6.83-120.14-7.64-125.15C310.24,104.95,208.9,25.94,208.9,25.94
	c-14.61-12.61-37.52-11.62-54.45,0c-9.75,6.69-106.24,94.5-107.13,132.79c-0.35,15.27-2.66,102.58-5.31,125.48
	c3.98,12.61,13.61,55.11,6.64,71.71c-4.24,10.1-15.93,34.52,7.3,75.03c7.15,12.46,95.94,146.4,100.25,152.21
	c0,0-18.52-120.64-19.92-171.79c-0.6-21.91-2.32-100.59-3.65-109.22c-44.15-6.31-57.43-37.18-55.11-58.09
	c12.95,3.32,70.71,22.57,70.71,22.57c22.91,23.24,22.91,61.75,12.28,120.17c5.31,9.96,21.25,42.16,23.7,45.15
	c2.78-3.32,17.8-36.18,20.79-43.49c-9.3-61.08-7.3-98.93,12.95-121.83c7.97-6.64,65.4-19.88,70.38-21.91
	c4.32,27.55-17.59,54.96-54.77,57.1c-0.7,20.22-2.94,88.14-3.65,108.55c-1.85,53.14-16.31,165.65-19.25,172.79
	c4.32-5.15,88.08-133.77,96.27-146.56c25.39-39.65,17.93-55.11,11.95-80.67C313.26,331.93,319.53,296.5,326.5,283.88z
	 M222.19,552.96c6.31-36.85,17.59-169.53,18.64-201.63c2.66,50.92-3.04,131.13-8.8,180.6c0,0,29.43-34.52,32.75-37.84
	C263.25,497.85,229.63,543.84,222.19,552.96z M195.05,223.04l-9.85,9.74l-0.11-208.59c0,0,34.52,28.77,40.28,34.52
	C193.5,114.93,194.38,152.11,195.05,223.04z M297.11,260.04c-0.44-8.58-0.33-24.23-0.83-29.46c-8.47,4.9-37.68,13.53-52.78,15.52
	c35.49-14.53,53.78-28.38,58.59-44.98C303.41,210.24,302.18,251.41,297.11,260.04z"/>
</svg>
